{"title":"Kick (2014) (New Source) 1CD x264 Pre DvDRip AAC - KingBhai - [H","uid":10641748,"size":732232420,"categoryP":"video","categoryS":"movies","magnet":"?xt=urn:btih:0d3f37b6d0088e1bfb5664c565b548e489653ed0&amp;dn=Kick+%282014%29+%28New+Source%29+1CD+x264+Pre+DvDRip+AAC+-+KingBhai+-+%5BH&amp;tr=udp%3A%2F%2Ftracker.openbittorrent.com%3A80&amp;tr=udp%3A%2F%2Fopen.demonii.com%3A1337&amp;tr=udp%3A%2F%2Ftracker.coppersurfer.tk%3A6969&amp;tr=udp%3A%2F%2Fexodus.desync.com%3A6969","seeders":1,"leechers":0,"uploader":"OnlyByTheRain","files":2,"time":1406472043,"description":"Overall bit rate mode : Variable\nOverall bit rate : 669 Kbps\nEncoded date : UTC 2014-07-27 09:37:38\nTagged date : UTC 2014-07-27 09:37:38\n\nVideo\nID : 1\nFormat : AVC\nFormat/Info : Advanced Video Codec\nFormat profile : &lt;a class=&quot;__cf_email__&quot; href=&quot;/cdn-cgi/l/email-protection&quot; data-cfemail=&quot;6d25040a052d2159435f&quot;&gt;[email&amp;#160;protected]&lt;/a&gt;&lt;script cf-hash='f9e31' type=&quot;text/javascript&quot;&gt;\n/* &lt;![CDATA[ */!function(){try{var t=&quot;currentScript&quot;in document?document.currentScript:function(){for(var t=document.getElementsByTagName(&quot;script&quot;),e=t.length;e--;)if(t[e].getAttribute(&quot;cf-hash&quot;))return t[e]}();if(t&amp;&amp;t.previousSibling){var e,r,n,i,c=t.previousSibling,a=c.getAttribute(&quot;data-cfemail&quot;);if(a){for(e=&quot;&quot;,r=parseInt(a.substr(0,2),16),n=2;a.length-n;n+=2)i=parseInt(a.substr(n,2),16)^r,e+=String.fromCharCode(i);e=document.createTextNode(e),c.parentNode.replaceChild(e,c)}}}catch(u){}}();/* ]]&gt; */&lt;/script&gt;\nFormat settings, CABAC : Yes\nFormat settings, ReFrames : 4 frames\nCodec ID : avc1\nCodec ID/Info : Advanced Video Coding\nDuration : 2h 25mn\nBit rate : 553 Kbps\nMaximum bit rate : 3 550 Kbps\nWidth : 640 pixels\nHeight : 272 pixels\nDisplay aspect ratio : 2.35:1\nFrame rate mode : Constant\nFrame rate : 23.976 fps\nColor space : YUV\nChroma subsampling : 4:2:0\nBit depth : 8 bits\nScan type : Progressive\nBits/(Pixel*Frame) : 0.132\nStream size : 577 MiB (83%)\nWriting library : x264 core 142 r2431\n\nAudio\nID : 2\nFormat : AAC\nFormat/Info : Advanced Audio Codec\nFormat profile : LC\nCodec ID : 40\nDuration : 2h 25mn\nBit rate mode : Variable\nBit rate : 112 Kbps\nMaximum bit rate : 130 Kbps\nChannel(s) : 2 channels\nChannel positions : Front: L R\nSampling rate : 48.0 KHz\nCompression mode : Lossy\nStream size : 117 MiB (17%)\nLanguage : Hindi\n\nScreenshots &lt;a href=&quot;\nhttp://www.teamos-hkrg.com/threads/kick-2014-new-source-1cd-x264-pre-dvdrip-aac-kingbhai-hkrg.2349/&quot; rel=&quot;nofollow&quot; target=&quot;_NEW&quot;&gt;\nhttp://www.teamos-hkrg.com/threads/kick-2014-new-source-1cd-x264-pre-dvdrip-aac-kingbhai-hkrg.2349/&lt;/a&gt;","torrent":{"xt":"urn:btih:0d3f37b6d0088e1bfb5664c565b548e489653ed0","amp;dn":"Kick+%282014%29+%28New+Source%29+1CD+x264+Pre+DvDRip+AAC+-+KingBhai+-+%5BH","amp;tr":["udp%3A%2F%2Ftracker.openbittorrent.com%3A80","udp%3A%2F%2Fopen.demonii.com%3A1337","udp%3A%2F%2Ftracker.coppersurfer.tk%3A6969","udp%3A%2F%2Fexodus.desync.com%3A6969"],"infoHash":"0d3f37b6d0088e1bfb5664c565b548e489653ed0","infoHashBuffer":{"type":"Buffer","data":[13,63,55,182,208,8,142,27,251,86,100,197,101,181,72,228,137,101,62,208]},"announce":[],"urlList":[]}}